<svg width="16" height="16" viewBox="0 0 16 16" fill="none" xmlns="http://www.w3.org/2000/svg">
<path d="M5.92496 5.41731C6.4424 4.61367 6.94511 2.93105 4.81641 2.62964" stroke="#444444"/>
<path d="M9.33011 10.5256L4.80763 6.00317L1.56445 13.7688L9.33011 10.5256Z" stroke="#444444" stroke-linejoin="round"/>
<path d="M8.83071 2.75344C8.87182 2.93633 8.9835 3.08542 9.13062 3.17855C9.27772 3.27166 9.46027 3.3088 9.64315 3.26772L10.0854 3.16835C10.4512 3.08617 10.6818 2.72176 10.5996 2.35599L10.5002 1.91377C10.418 1.54803 10.0536 1.3173 9.68777 1.39949L9.24552 1.49886C9.06885 1.53855 8.91791 1.64509 8.8206 1.79883C8.72329 1.95254 8.69157 2.13452 8.73129 2.31122L8.83071 2.75344Z" stroke="#444444"/>
<path d="M9.6123 8.87577C9.75173 9.00107 9.9291 9.05795 10.103 9.04868C10.2768 9.03942 10.4472 8.96398 10.5725 8.82459L10.8755 8.48749C11.1261 8.20869 11.1031 7.77801 10.8243 7.52741L10.4872 7.22445C10.2084 6.97389 9.77764 6.9968 9.52702 7.27563L9.224 7.61273C9.10295 7.7474 9.04159 7.92166 9.05127 8.10335C9.06096 8.28502 9.14047 8.45175 9.27517 8.57281L9.6123 8.87577Z" stroke="#0000E1"/>
<path d="M10.2449 5.57991C10.4903 5.0815 11.3094 4.1423 12.6227 4.3728" stroke="#0000E1"/>
<path d="M14.662 7.30375C14.2251 7.64693 13.0803 8.1393 11.996 7.36333" stroke="#444444"/>
<circle cx="8.33333" cy="4.99984" r="0.333333" fill="#0000E1"/>
<circle cx="12.9993" cy="2.99984" r="0.333333" fill="#444444"/>
<circle cx="11.6673" cy="9.66683" r="0.333333" fill="#444444"/>
<path d="M7.3325 8.31697C5.83224 8.98937 4.43462 8.55542 3.85156 8.15381" stroke="#444444"/>
<path d="M2.66602 10.6665L4.66602 12.6665" stroke="#444444"/>
<path d="M6.33333 11.6668L5 10.3335" stroke="#444444"/>
</svg>
