<svg width="585" height="96" viewBox="0 0 585 96" fill="none" xmlns="http://www.w3.org/2000/svg">
<path d="M2.19025 79.896C6.03025 80.856 10.4943 81.672 15.5823 82.344C20.7663 82.92 25.7103 83.208 30.4142 83.208C35.3103 83.208 40.7343 82.92 46.6863 82.344V55.56L33.0063 54.552C24.1743 53.88 17.5503 52.776 13.1343 51.24C8.71825 49.608 5.59825 47.112 3.77425 43.752C2.04625 40.296 1.18225 35.352 1.18225 28.92C1.18225 22.008 2.04625 16.536 3.77425 12.504C5.59825 8.37599 8.47825 5.39999 12.4142 3.57599C16.4463 1.75199 21.8223 0.839993 28.5423 0.839993C38.2383 0.839993 47.9343 1.75199 57.6303 3.57599L55.7583 14.952C48.0783 13.512 39.2943 12.792 29.4062 12.792C24.5103 12.792 20.3343 13.032 16.8783 13.512V40.584L32.8623 41.592C40.5423 42.072 46.4943 43.224 50.7183 45.048C54.9423 46.776 57.9183 49.512 59.6463 53.256C61.4703 56.904 62.3823 61.992 62.3823 68.52C62.3823 75.24 61.3263 80.52 59.2143 84.36C57.1023 88.2 53.6463 90.984 48.8463 92.712C44.0463 94.344 37.4703 95.16 29.1183 95.16C18.9423 95.16 9.24625 94.008 0.0302505 91.704L2.19025 79.896ZM124.958 72.84H90.5421L84.6381 93H70.2381L96.8781 3H118.622L145.262 93H130.862L124.958 72.84ZM121.646 61.464L108.398 16.248H107.102L93.8541 61.464H121.646ZM160.351 3H174.751V81.048H207.871V93H160.351V3ZM236.626 81.048H276.226V93H222.226V3H275.794L274.066 14.952H236.626V42.312H270.754V53.688H236.626V81.048ZM292.159 79.896C295.999 80.856 300.463 81.672 305.551 82.344C310.735 82.92 315.679 83.208 320.383 83.208C325.279 83.208 330.703 82.92 336.655 82.344V55.56L322.975 54.552C314.143 53.88 307.519 52.776 303.103 51.24C298.687 49.608 295.567 47.112 293.743 43.752C292.015 40.296 291.151 35.352 291.151 28.92C291.151 22.008 292.015 16.536 293.743 12.504C295.567 8.37599 298.447 5.39999 302.383 3.57599C306.415 1.75199 311.791 0.839993 318.511 0.839993C328.207 0.839993 337.903 1.75199 347.599 3.57599L345.727 14.952C338.047 13.512 329.263 12.792 319.375 12.792C314.479 12.792 310.303 13.032 306.847 13.512V40.584L322.831 41.592C330.511 42.072 336.463 43.224 340.687 45.048C344.911 46.776 347.887 49.512 349.615 53.256C351.439 56.904 352.351 61.992 352.351 68.52C352.351 75.24 351.295 80.52 349.183 84.36C347.071 88.2 343.615 90.984 338.815 92.712C334.015 94.344 327.439 95.16 319.087 95.16C308.911 95.16 299.215 94.008 289.999 91.704L292.159 79.896ZM371.007 3H385.407V81.048H418.527V93H371.007V3ZM429.282 48.072C429.282 34.536 430.242 24.504 432.162 17.976C434.082 11.448 437.538 6.98399 442.53 4.584C447.522 2.08799 455.25 0.839993 465.714 0.839993C476.082 0.839993 483.762 2.08799 488.754 4.584C493.842 7.08 497.346 11.592 499.266 18.12C501.186 24.648 502.146 34.632 502.146 48.072C502.146 61.512 501.186 71.496 499.266 78.024C497.346 84.552 493.842 89.064 488.754 91.56C483.762 93.96 476.082 95.16 465.714 95.16C455.25 95.16 447.522 93.96 442.53 91.56C437.538 89.064 434.082 84.552 432.162 78.024C430.242 71.496 429.282 61.512 429.282 48.072ZM474.354 82.92C478.962 82.92 482.178 82.152 484.002 80.616C485.826 79.08 486.738 76.344 486.738 72.408V13.08H456.93C452.322 13.08 449.106 13.848 447.282 15.384C445.554 16.92 444.69 19.656 444.69 23.592V82.92H474.354ZM584.189 43.464V90.12C579.485 91.944 574.589 93.24 569.501 94.008C564.509 94.776 558.509 95.16 551.501 95.16C542.765 95.16 536.285 93.96 532.061 91.56C527.837 89.16 524.909 84.696 523.277 78.168C521.645 71.64 520.829 61.608 520.829 48.072C520.829 35.208 521.789 25.464 523.709 18.84C525.629 12.216 529.037 7.55999 533.933 4.87199C538.925 2.18399 546.317 0.839993 556.109 0.839993C559.853 0.839993 564.125 1.128 568.925 1.704C573.821 2.28 577.757 3 580.733 3.864L578.861 15.672C575.021 14.904 570.461 14.28 565.181 13.8C559.997 13.32 555.773 13.08 552.509 13.08C546.365 13.08 542.093 13.8 539.693 15.24C537.293 16.584 536.093 19.512 536.093 24.024V83.64H571.373V54.84H557.693V43.464H584.189Z" fill="#0000FF"/>
</svg>