<svg width="16" height="16" viewBox="0 0 16 16" fill="none" xmlns="http://www.w3.org/2000/svg">
<path d="M5 4.58732V1.92065" stroke="#444444"/>
<path d="M11 4.58732V1.92065" stroke="#444444"/>
<rect x="2.66699" y="3.25415" width="10.6667" height="9.33333" stroke="#444444" stroke-linejoin="round"/>
<path d="M2.66699 5.58716H13.3337" stroke="#444444"/>
<rect x="4.66699" y="7.25415" width="0.666667" height="0.666667" fill="#0000E1"/>
<rect x="4.66699" y="8.58716" width="0.666667" height="0.666667" fill="#0000E1"/>
<rect x="4.66699" y="9.92065" width="0.666667" height="0.666667" fill="#0000E1"/>
<rect x="6.66699" y="7.25415" width="0.666667" height="0.666667" fill="#0000E1"/>
<rect x="6.66699" y="8.58716" width="0.666667" height="0.666667" fill="#0000E1"/>
<rect x="6.66699" y="9.92065" width="0.666667" height="0.666667" fill="#0000E1"/>
<rect x="8.66699" y="7.25415" width="0.666667" height="0.666667" fill="#0000E1"/>
<rect x="8.66699" y="8.58716" width="0.666667" height="0.666667" fill="#0000E1"/>
<rect x="8.66699" y="9.92065" width="0.666667" height="0.666667" fill="#0000E1"/>
<rect x="10.667" y="7.25415" width="0.666667" height="0.666667" fill="#0000E1"/>
<rect x="10.667" y="8.58716" width="0.666667" height="0.666667" fill="#0000E1"/>
<rect x="10.667" y="9.92065" width="0.666667" height="0.666667" fill="#0000E1"/>
</svg>
