<?xml version="1.0" encoding="UTF-8"?>
<svg xmlns="http://www.w3.org/2000/svg" xmlns:xlink="http://www.w3.org/1999/xlink" width="20px" height="20px" viewBox="0 0 20 20" version="1.1">
<defs>
<clipPath id="clip1">
  <path d="M 14 7 L 19.988281 7 L 19.988281 13 L 14 13 Z M 14 7 "/>
</clipPath>
</defs>
<g id="surface1">
<path style=" stroke:none;fill-rule:nonzero;fill:current;fill-opacity:1;" d="M 1.953125 7.539062 C 1.039062 7.734375 0.25 8.53125 0.0585938 9.449219 C -0.3125 11.21875 1.253906 12.785156 3.027344 12.414062 C 4.148438 12.179688 4.996094 11.128906 4.996094 9.976562 C 4.996094 8.390625 3.511719 7.203125 1.953125 7.539062 Z M 1.953125 7.539062 "/>
<path style=" stroke:none;fill-rule:nonzero;fill:current;fill-opacity:1;" d="M 9.449219 7.539062 C 8.535156 7.734375 7.746094 8.53125 7.554688 9.449219 C 7.183594 11.21875 8.75 12.785156 10.519531 12.414062 C 11.449219 12.21875 12.238281 11.429688 12.433594 10.5 C 12.804688 8.722656 11.226562 7.15625 9.449219 7.539062 Z M 9.449219 7.539062 "/>
<g clip-path="url(#clip1)" clip-rule="nonzero">
<path style=" stroke:none;fill-rule:nonzero;fill:current;fill-opacity:1;" d="M 16.945312 7.539062 C 16.03125 7.734375 15.242188 8.53125 15.050781 9.449219 C 14.679688 11.21875 16.246094 12.785156 18.015625 12.414062 C 18.945312 12.21875 19.734375 11.429688 19.929688 10.5 C 20.300781 8.722656 18.722656 7.15625 16.945312 7.539062 Z M 16.945312 7.539062 "/>
</g>
</g>
</svg>
