<svg width="20" height="20" viewBox="0 0 20 20" fill="none" xmlns="http://www.w3.org/2000/svg">
<path d="M12.4165 5.16666C12.4165 3.83198 11.3345 2.75 9.99984 2.75C8.66515 2.75 7.58317 3.83198 7.58317 5.16667V9.05556C7.58317 10.3902 8.66515 11.4722 9.99984 11.4722C11.3345 11.4722 12.4165 10.3902 12.4165 9.05556V5.16666Z" stroke="#333333"/>
<path d="M14.375 6.625V9.05556C14.375 11.4718 12.4162 13.4306 10 13.4306V13.4306C7.58375 13.4306 5.625 11.4718 5.625 9.05556V6.625" stroke="#333333"/>
<path d="M10 12.9453V17.8064" stroke="#333333"/>
<path d="M6.10986 17.8047H13.8876" stroke="#333333"/>
<path d="M7.0835 6.13867H9.02794" stroke="#333333"/>
<path d="M7.0835 8.08398H9.02794" stroke="#333333"/>
<path d="M10.9731 6.13867H12.9176" stroke="#333333"/>
<path d="M10.9731 8.08398H12.9176" stroke="#333333"/>
</svg>
