<svg width="20" height="20" viewBox="0 0 16 16" fill="none" xmlns="http://www.w3.org/2000/svg">
<path d="M3.03084 7.57919C2.95937 7.31246 3.11766 7.03829 3.3844 6.96682L4.90759 6.55868L5.64423 9.30786L4.12104 9.71599C3.8543 9.78746 3.58013 9.62917 3.50866 9.36244L3.03084 7.57919Z" stroke="#444444"/>
<path d="M5.9043 9.38315L5.09539 6.36425L9.72673 3.30639C10.0115 3.11835 10.3969 3.26459 10.4852 3.59424L11.957 9.08716C12.0453 9.41681 11.7848 9.73612 11.4441 9.71567L5.9043 9.38315Z" stroke="#444444"/>
<path d="M4.76953 10.0613L5.42653 12.5132C5.53102 12.9032 5.85972 13.1921 6.25986 13.2456L6.50765 13.2787C6.86129 13.3261 7.14926 12.9984 7.05691 12.6538L6.25557 9.6631" stroke="#444444"/>
<path d="M11.9996 7.32696C12.6152 7.16203 12.9804 6.52933 12.8155 5.91379C12.6506 5.29825 12.0179 4.93297 11.4023 5.0979" stroke="#0000E1"/>
</svg>
