<svg width="20" height="20" viewBox="0 0 20 20" fill="none" xmlns="http://www.w3.org/2000/svg">
<path d="M15 7.91602C15 5.15459 12.7614 2.91602 10 2.91602C7.23858 2.91602 5 5.15459 5 7.91602" stroke="#333333"/>
<path d="M15.0003 12.9167C15.0003 14.7576 13.5079 16.25 11.667 16.25" stroke="#333333"/>
<path d="M3.66748 8.91602C3.66748 8.63987 3.89134 8.41602 4.16748 8.41602H5.58415V13.2493H4.16748C3.89134 13.2493 3.66748 13.0255 3.66748 12.7493V8.91602Z" stroke="#333333"/>
<path d="M16.333 8.91602C16.333 8.63987 16.1091 8.41602 15.833 8.41602H14.4163V13.2493H15.833C16.1091 13.2493 16.333 13.0255 16.333 12.7493V8.91602Z" stroke="#333333"/>
<path d="M12 16C12 15.7239 11.7761 15.5 11.5 15.5H10.1667C9.89052 15.5 9.66667 15.7239 9.66667 16V16.5C9.66667 16.7761 9.89052 17 10.1667 17H11.5C11.7761 17 12 16.7761 12 16.5V16Z" stroke="#333333"/>
</svg>
