<svg width="24" height="24" viewBox="0 0 24 24" fill="none" xmlns="http://www.w3.org/2000/svg">
<path d="M2.08629 17.9994C2.08629 17.9994 1.0283 11.6465 6.32158 11.6465C7.50359 11.6465 8.3689 11.9633 9 12.4554" stroke="#666666" stroke-linejoin="round"/>
<path d="M4 9C4 7.61929 5.11929 6.5 6.5 6.5V6.5C7.88071 6.5 9 7.61929 9 9V9C9 10.3807 7.88071 11.5 6.5 11.5V11.5C5.11929 11.5 4 10.3807 4 9V9Z" stroke="#666666" stroke-linejoin="round"/>
<path d="M15 9C15 7.61929 16.1193 6.5 17.5 6.5V6.5C18.8807 6.5 20 7.61929 20 9V9C20 10.3807 18.8807 11.5 17.5 11.5V11.5C16.1193 11.5 15 10.3807 15 9V9Z" stroke="#666666" stroke-linejoin="round"/>
<path d="M21.9137 17.9999C21.9137 17.9999 22.9717 11.647 17.6784 11.647C16.4964 11.647 15.6311 11.9638 15 12.4559" stroke="#666666" stroke-linejoin="round"/>
<path d="M6.11984 20C6.11984 20 4.65096 12 12 12C19.349 12 17.8802 20 17.8802 20" stroke="#666666" stroke-linejoin="round"/>
<path d="M8 8C8 5.79086 9.79086 4 12 4C14.2091 4 16 5.79086 16 8C16 10.2091 14.2091 12 12 12C9.79086 12 8 10.2091 8 8Z" fill="white" stroke="#666666" stroke-linejoin="round"/>
</svg>
