<svg width="20" height="20" viewBox="0 0 20 20" fill="none" xmlns="http://www.w3.org/2000/svg">
<path d="M16.9118 8.93864C16.8786 8.71993 16.7278 8.53746 16.5196 8.46362L15.4166 8.07143C15.3514 7.88663 15.2774 7.70697 15.1954 7.53317L15.6973 6.4769C15.792 6.27771 15.7695 6.04213 15.6387 5.86399C15.2157 5.28861 14.7102 4.78313 14.1363 4.36202C13.9581 4.23113 13.7233 4.20888 13.5237 4.30385L12.4681 4.80539C12.2943 4.72335 12.1144 4.64951 11.9294 4.58427L11.537 3.48115C11.4632 3.27337 11.2812 3.12295 11.063 3.08937C10.2876 2.97021 9.71376 2.97021 8.93718 3.08937C8.71919 3.12295 8.53696 3.27337 8.46312 3.48115L8.07077 4.58427C7.88581 4.64951 7.7059 4.72335 7.53227 4.80539L6.47624 4.30385C6.27705 4.20896 6.04187 4.23121 5.86373 4.36202C5.28988 4.78313 4.7844 5.28861 4.36136 5.86399C4.23047 6.04213 4.20805 6.27763 4.30279 6.4769L4.80473 7.53317C4.72269 7.70665 4.64885 7.88671 4.58345 8.07143L3.48033 8.46402C3.2723 8.53786 3.12173 8.72026 3.0883 8.93864C3.02812 9.33396 3 9.67103 3 10.0008C3 10.3301 3.02812 10.6676 3.0883 11.0629C3.12149 11.2816 3.2723 11.4641 3.48049 11.5379L4.58345 11.9301C4.64885 12.1153 4.72293 12.295 4.80473 12.4688L4.30279 13.5247C4.20805 13.7239 4.23055 13.9594 4.3612 14.1372C4.78368 14.7121 5.28915 15.2176 5.86373 15.6395C6.04187 15.7704 6.27705 15.7931 6.4764 15.6977L7.53203 15.1962C7.70582 15.2782 7.88573 15.3521 8.07069 15.4173L8.46304 16.5204C8.53688 16.7282 8.71887 16.8786 8.9371 16.9122C9.32502 16.972 9.67262 17.0009 9.99996 17.0009C10.3273 17.0009 10.675 16.972 11.0628 16.9122C11.281 16.8786 11.463 16.7282 11.5369 16.5204L11.9292 15.4173C12.1142 15.3521 12.2941 15.2782 12.4679 15.1962L13.5235 15.6977C13.7231 15.793 13.9583 15.7704 14.1364 15.6395C14.7116 15.2169 15.2171 14.7114 15.6388 14.1372C15.7694 13.9594 15.7919 13.7239 15.6972 13.5247L15.1953 12.4688C15.2773 12.295 15.3513 12.1149 15.4166 11.9301L16.5195 11.5379C16.7277 11.4641 16.8785 11.2817 16.9117 11.0629C16.9719 10.6676 17 10.3301 17 10.0008C17 9.67143 16.972 9.33388 16.9118 8.93864Z" stroke="#333333"/>
<circle cx="10.0002" cy="10.0007" r="2.41667" stroke="#333333"/>
</svg>
