<svg width="1031" height="269" viewBox="0 0 1031 269" fill="none" xmlns="http://www.w3.org/2000/svg">
<path d="M68.3516 205.456C53.3756 205.456 35.0396 203.152 13.3436 198.544L2.97563 196.528L7.00763 165.712C32.7356 169.168 52.4156 170.896 66.0476 170.896C86.3996 170.896 96.5756 162.448 96.5756 145.552C96.5756 138.64 93.8876 133.552 88.5116 130.288C83.1356 127.024 74.1116 123.568 61.4396 119.92C46.2716 115.696 34.2716 110.992 25.4396 105.808C16.7996 100.624 10.4636 94.48 6.43163 87.376C2.59163 80.272 0.671625 71.44 0.671625 60.88C0.671625 41.68 6.52763 27.184 18.2396 17.392C29.9516 7.59999 46.3676 2.70399 67.4876 2.70399C75.7436 2.70399 84.2876 3.27999 93.1196 4.43199C101.952 5.39198 114.912 7.40799 132 10.48L128.832 41.872C102.528 38.8 83.4236 37.264 71.5196 37.264C50.5916 37.264 40.1276 44.176 40.1276 58C40.1276 62.8 41.8556 66.736 45.3116 69.808C48.7676 72.88 53.0876 75.472 58.2716 77.584C63.4556 79.504 72.1916 82.384 84.4796 86.224C97.7276 90.448 108 94.864 115.296 99.472C122.592 104.08 127.872 109.84 131.136 116.752C134.4 123.472 136.032 132.208 136.032 142.96C136.032 163.12 129.888 178.576 117.6 189.328C105.504 200.08 89.0876 205.456 68.3516 205.456ZM199.664 205.456C169.904 205.456 155.024 189.712 155.024 158.224C155.024 143.248 158.96 132.496 166.832 125.968C174.896 119.248 187.76 115.312 205.424 114.16L236.24 111.856V102.928C236.24 97.168 234.896 93.136 232.208 90.832C229.712 88.528 225.392 87.376 219.248 87.376C212.912 87.376 204.176 87.664 193.04 88.24C181.904 88.624 172.592 89.104 165.104 89.68L163.952 62.896C184.688 57.328 204.272 54.544 222.704 54.544C241.136 54.544 254.384 58.384 262.448 66.064C270.704 73.744 274.832 86.032 274.832 102.928V162.832C275.216 167.632 275.984 170.896 277.136 172.624C278.48 174.352 280.88 175.6 284.336 176.368L283.184 205.456C273.2 205.456 265.232 204.784 259.28 203.44C253.52 202.096 247.76 199.408 242 195.376C227.984 202.096 213.872 205.456 199.664 205.456ZM208.016 174.064C215.312 174.064 223.28 172.912 231.92 170.608L236.24 169.456V138.64L210.032 140.944C199.28 141.904 193.904 147.664 193.904 158.224C193.904 168.784 198.608 174.064 208.016 174.064ZM313.35 0.399986H351.942V202H313.35V0.399986ZM444.288 205.456C421.824 205.456 405.6 199.792 395.616 188.464C385.632 177.136 380.64 158.8 380.64 133.456C380.64 106.96 385.824 87.184 396.192 74.128C406.752 61.072 423.072 54.544 445.152 54.544C465.504 54.544 480.864 60.016 491.232 70.96C501.792 81.712 507.072 97.936 507.072 119.632L504.192 146.416H419.52C419.904 153.136 421.056 158.32 422.976 161.968C425.088 165.424 428.352 167.92 432.768 169.456C437.376 170.8 443.712 171.472 451.776 171.472C458.112 171.472 465.696 171.28 474.528 170.896C483.36 170.512 489.792 170.128 493.824 169.744L501.888 168.88L502.464 197.392C480.768 202.768 461.376 205.456 444.288 205.456ZM469.056 117.04C469.056 105.52 467.232 97.552 463.584 93.136C460.128 88.528 453.888 86.224 444.864 86.224C435.648 86.224 429.12 88.624 425.28 93.424C421.44 98.032 419.424 105.904 419.232 117.04H469.056ZM585.053 205.456C572.381 205.456 556.925 203.728 538.685 200.272L529.469 198.544L530.621 166.288C553.853 169.36 570.749 170.896 581.309 170.896C588.413 170.896 593.981 170.128 598.013 168.592C602.237 167.056 604.349 164.176 604.349 159.952C604.349 156.112 602.333 153.328 598.301 151.6C594.461 149.872 587.933 148.24 578.717 146.704C575.261 146.32 572.861 145.936 571.517 145.552C561.917 143.824 554.045 141.712 547.901 139.216C541.757 136.528 536.765 132.4 532.925 126.832C529.085 121.072 527.165 113.104 527.165 102.928C527.165 86.608 532.157 74.512 542.141 66.64C552.125 58.768 565.853 54.832 583.325 54.832C593.693 54.832 608.957 56.656 629.117 60.304L638.621 62.032L638.045 94C614.813 90.928 597.629 89.392 586.493 89.392C579.965 89.392 574.781 90.064 570.941 91.408C567.293 92.752 565.469 95.344 565.469 99.184C565.469 103.216 567.389 106.096 571.229 107.824C575.069 109.36 581.309 110.896 589.949 112.432L600.029 114.16C615.389 117.232 626.333 121.84 632.861 127.984C639.389 133.936 642.653 143.632 642.653 157.072C642.653 173.584 637.949 185.776 628.541 193.648C619.133 201.52 604.637 205.456 585.053 205.456ZM672.225 0.399986H710.817V202H672.225V0.399986ZM805.467 205.456C783.771 205.456 767.259 198.928 755.931 185.872C744.795 172.624 739.227 153.904 739.227 129.712C739.227 105.712 744.795 87.184 755.931 74.128C767.259 61.072 783.771 54.544 805.467 54.544C827.163 54.544 843.579 61.072 854.715 74.128C866.043 87.184 871.707 105.712 871.707 129.712C871.707 153.904 866.043 172.624 854.715 185.872C843.579 198.928 827.163 205.456 805.467 205.456ZM805.467 172.624C814.683 172.624 821.499 169.264 825.915 162.544C830.331 155.824 832.539 144.88 832.539 129.712C832.539 114.544 830.331 103.696 825.915 97.168C821.499 90.64 814.683 87.376 805.467 87.376C796.251 87.376 789.435 90.64 785.019 97.168C780.603 103.696 778.395 114.544 778.395 129.712C778.395 144.88 780.603 155.824 785.019 162.544C789.435 169.264 796.251 172.624 805.467 172.624ZM957.885 268.24C937.341 268.24 921.309 265.168 909.789 259.024C898.461 253.072 892.797 243.28 892.797 229.648C892.797 222.544 894.429 216.208 897.693 210.64C901.149 205.264 906.429 199.696 913.533 193.936C910.077 191.632 907.389 188.656 905.469 185.008C903.741 181.36 902.877 177.52 902.877 173.488C902.877 170.608 903.549 167.632 904.893 164.56C906.429 161.488 909.501 156.304 914.109 149.008C901.053 139.408 894.525 125.392 894.525 106.96C894.525 89.488 899.805 76.528 910.365 68.08C921.117 59.44 935.997 55.12 955.005 55.12C963.069 55.12 972.765 56.368 984.093 58.864L1030.46 57.424V88.24L1008.86 86.512C1011.36 90.544 1012.99 94 1013.76 96.88C1014.72 99.76 1015.2 103.696 1015.2 108.688C1015.2 125.968 1010.3 138.352 1000.51 145.84C990.717 153.136 975.837 156.784 955.869 156.784C950.109 156.784 945.693 156.4 942.621 155.632C940.701 160.24 939.741 164.176 939.741 167.44C939.741 171.472 941.661 173.968 945.501 174.928C949.533 175.696 956.925 176.176 967.677 176.368C982.461 176.752 994.173 177.904 1002.81 179.824C1011.64 181.744 1018.46 185.68 1023.26 191.632C1028.06 197.392 1030.46 205.936 1030.46 217.264C1030.46 234.736 1024.51 247.6 1012.6 255.856C1000.7 264.112 982.461 268.24 957.885 268.24ZM955.293 127.408C969.885 127.408 977.181 120.304 977.181 106.096C977.181 92.08 969.885 85.072 955.293 85.072C940.509 85.072 933.117 92.08 933.117 106.096C933.117 120.304 940.509 127.408 955.293 127.408ZM960.477 236.56C971.421 236.56 979.293 235.312 984.093 232.816C989.085 230.32 991.581 226.48 991.581 221.296C991.581 216.496 989.757 213.424 986.109 212.08C982.653 210.928 978.525 210.256 973.725 210.064C969.117 209.872 966.045 209.776 964.509 209.776L938.589 207.76C933.405 212.944 930.813 218.128 930.813 223.312C930.813 227.92 933.213 231.28 938.013 233.392C943.005 235.504 950.493 236.56 960.477 236.56Z" fill="current"/>
</svg>
