<svg width="24" height="24" viewBox="0 0 24 24" fill="none" xmlns="http://www.w3.org/2000/svg">
<path d="M4 8.5C4 7.94772 4.44772 7.5 5 7.5H19C19.5523 7.5 20 7.94772 20 8.5V18.5C20 19.0523 19.5523 19.5 19 19.5H5C4.44772 19.5 4 19.0523 4 18.5V8.5Z" fill="white" stroke="#666666" stroke-linejoin="round"/>
<path d="M7 7.5L8.3618 4.77639C8.4465 4.607 8.61963 4.5 8.80902 4.5H15.191C15.3804 4.5 15.5535 4.607 15.6382 4.77639L17 7.5" stroke="#666666"/>
<path d="M4 8L6.35312 11.765C6.44449 11.9112 6.60473 12 6.77712 12H17.2229C17.3953 12 17.5555 11.9112 17.6469 11.765L20 8" stroke="#666666"/>
<path d="M9 12C9 11.4477 9.44772 11 10 11H14C14.5523 11 15 11.4477 15 12C15 12.5523 14.5523 13 14 13H10C9.44772 13 9 12.5523 9 12Z" fill="white" stroke="#666666" stroke-linejoin="round"/>
</svg>
