<svg width="20" height="20" viewBox="0 0 20 20" fill="none" xmlns="http://www.w3.org/2000/svg">
<circle cx="10" cy="10" r="7.45" stroke="#398FFF" stroke-width="1.1"/>
<path d="M10.4419 13.2436C10.5477 13.2436 10.6006 13.3128 10.6006 13.4511C10.6006 13.6342 10.5172 13.8234 10.3504 14.0187C10.1063 14.3035 9.77874 14.4459 9.36781 14.4459C8.89585 14.4459 8.5724 14.2547 8.39745 13.8722C8.33235 13.738 8.2998 13.5752 8.2998 13.384C8.2998 13.1928 8.33235 12.9812 8.39745 12.7493C8.46662 12.5133 8.55002 12.2672 8.64767 12.0108C8.74939 11.7504 8.85924 11.488 8.97723 11.2236L9.30068 10.4546C9.53666 9.88092 9.65465 9.50254 9.65465 9.31945C9.65465 9.13637 9.63431 9.01634 9.59362 8.95938C9.557 8.89835 9.51632 8.85156 9.47156 8.81902L9.3495 8.73358C9.30882 8.7051 9.28847 8.65627 9.28847 8.58711C9.28847 8.51387 9.31492 8.4447 9.36781 8.37961C9.42477 8.31451 9.49801 8.25755 9.58752 8.20873C9.7706 8.11515 9.98421 8.06836 10.2283 8.06836C10.8264 8.06836 11.1254 8.225 11.1254 8.53828C11.1254 8.90446 11.0298 9.32352 10.8386 9.79548C10.6474 10.2634 10.4846 10.6417 10.3504 10.9306L9.98421 11.7728C9.71568 12.3912 9.58141 12.8368 9.58141 13.1094C9.58141 13.2884 9.67092 13.3779 9.84994 13.3779C10.0249 13.3779 10.1571 13.3555 10.2466 13.3108C10.3361 13.266 10.4012 13.2436 10.4419 13.2436Z" fill="#398FFF"/>
<circle cx="11.004" cy="6.49469" r="0.795476" fill="#398FFF"/>
</svg>
