<svg width="20" height="20" viewBox="0 0 20 20" fill="none" xmlns="http://www.w3.org/2000/svg">
<path d="M10.7407 7.68062C10.7407 6.42991 11.7546 5.41602 13.0053 5.41602V5.41602C14.256 5.41602 15.2699 6.42991 15.2699 7.68062V7.68062C15.2699 8.93133 14.256 9.94523 13.0053 9.94523V9.94523C11.7546 9.94523 10.7407 8.93133 10.7407 7.68062V7.68062Z" stroke="#333333" stroke-linejoin="round"/>
<path d="M17.0048 15.8329C17.0048 15.8329 17.9632 10.0781 13.1683 10.0781C12.0976 10.0781 11.3138 10.3651 10.7421 10.8108" stroke="#333333" stroke-linejoin="round"/>
<path d="M3.01393 16.6647C3.01393 16.6647 1.78986 9.99805 7.91406 9.99805C14.0383 9.99805 12.8142 16.6647 12.8142 16.6647" stroke="#333333" stroke-linejoin="round"/>
<path d="M4.58057 6.66536C4.58057 4.82441 6.07295 3.33203 7.9139 3.33203C9.75485 3.33203 11.2472 4.82441 11.2472 6.66536C11.2472 8.50631 9.75485 9.9987 7.9139 9.9987C6.07295 9.9987 4.58057 8.50631 4.58057 6.66536Z" fill="white" stroke="#333333" stroke-linejoin="round"/>
</svg>
